<svg version="1.0" xmlns="http://www.w3.org/2000/svg" width="666.667" height="666.667" viewBox="0 0 500 500"><path d="M8.8 141.2c-.2 66.7 0 125.3.5 130.3 2.6 31.5 15.9 59.7 39.2 83C66.9 373 89 385.3 116 392.1c12.1 3 43.6 3.8 57.5 1.5 25.1-4.3 48-15.1 68.7-32.2 7.9-6.7 17.8-17.3 17.8-19.3 0-1.4-36.7-80.2-37.9-81.4-.5-.5-1.2 2.2-1.6 5.9-1.7 15.8-7.4 27.4-19.5 39.5-14.6 14.6-30.4 21.1-52 21.1-11.5.1-25.5-2.6-29.4-5.5-1.3-1 6.8-8.6 49-46.2 27.8-24.8 50.9-45.1 51.3-45.3.6-.2 20 38.8 62.6 126.3 8.1 16.5 14.8 30.2 15.1 30.4.2.2 7.2-2.9 15.6-6.9 8.4-4 15.7-7.3 16.3-7.3.5 0 7.9 3.2 16.3 7.2 8.5 3.9 15.9 7.1 16.5 7.1.7 0 5.8-10.1 11.4-22.3 5.6-12.2 16.8-36.4 24.9-53.7 32.8-70.7 47-101.4 54.7-118 4.4-9.6 8.3-18 8.7-18.5.4-.6 4.7-9.6 9.5-20 4.8-10.5 10.4-22.4 12.3-26.5 7.8-17 8.3-18.3 7-19.2-5.2-3.4-22.8-6.2-33-5.4-17.1 1.4-30 7.6-42.9 20.5-10 10.1-10 10.1-32.4 58.6-8.7 18.7-21.9 47.3-29.5 63.5-7.5 16.2-15.7 33.8-18 39-2.4 5.2-4.6 9.8-5 10.3-.3.4-13.8-26.2-30-59-16.1-32.9-31-62.6-33.1-66-15.9-26.5-44.1-49-73.5-58.9-30.6-10.2-65.1-9.6-94.4 1.6l-8 3.1v43c0 23.6.2 42.9.4 42.9s4.3-4 9.2-8.9c7.3-7.2 10.5-9.6 17.5-13 4.8-2.3 12-4.9 16-5.7 9.9-2.1 26-1.4 34.9 1.6 7 2.3 18 7.8 18 9 0 .7-103.2 92.8-105.7 94.3-3.6 2.2-3.8-2-4.4-103.3-.6-110-.1-102.4-7.9-117.9-6.8-13.7-17.5-24.3-31.3-31.3-6.8-3.4-19.2-6.8-24.9-6.8H9l-.2 121.2z"/></svg>